G04 Layer: TopPasteMaskLayer*
G04 EasyEDA v6.3.53, 2021-02-08T15:47:13+00:00*
G04 7da580a2e8884f3eb180e3ec4e2c64e8,b1630acdc24c452aa877618d651c332f,10*
G04 Gerber Generator version 0.2*
G04 Scale: 100 percent, Rotated: No, Reflected: No *
G04 Dimensions in millimeters *
G04 leading zeros omitted , absolute positions ,3 integer and 3 decimal *
%FSLAX33Y33*%
%MOMM*%
G90*
G71D02*

%ADD18R,1.099998X0.999998*%
%ADD19R,0.999998X0.899922*%
%ADD20R,1.550010X0.999998*%
%ADD21R,0.635000X1.999996*%
%ADD22R,15.899994X5.999988*%
%ADD23R,2.799994X0.799998*%
%ADD24R,1.299997X1.299997*%
%ADD25R,0.899998X0.799998*%

%LPD*%
G54D18*
G01X14986Y25643D03*
G01X14986Y27443D03*
G54D19*
G01X26162Y9437D03*
G01X26162Y11137D03*
G54D20*
G01X26162Y13478D03*
G01X26162Y15477D03*
G54D21*
G01X9652Y9402D03*
G01X10922Y9402D03*
G01X12192Y9402D03*
G01X13462Y9402D03*
G01X14732Y9402D03*
G01X16002Y9402D03*
G01X17272Y9402D03*
G01X18542Y9402D03*
G01X19812Y9402D03*
G01X21082Y9402D03*
G01X21082Y22601D03*
G01X19812Y22601D03*
G01X18542Y22601D03*
G01X17272Y22601D03*
G01X16002Y22601D03*
G01X14732Y22601D03*
G01X13462Y22601D03*
G01X12192Y22601D03*
G01X10922Y22601D03*
G01X9652Y22601D03*
G54D22*
G01X15367Y16002D03*
G54D23*
G01X23114Y25527D03*
G01X28194Y25527D03*
G54D18*
G01X5716Y17155D03*
G01X5716Y15355D03*
G01X18035Y27442D03*
G01X18035Y25642D03*
G54D24*
G01X4572Y9221D03*
G01X4572Y12622D03*
G01X4572Y23290D03*
G01X4572Y19889D03*
G54D25*
G01X25400Y19496D03*
G01X25400Y18095D03*

%LPD*%
G36*
G01X25767Y19873D02*
G01X25032Y19873D01*
G01X24967Y19809D01*
G01X24967Y19513D01*
G01X25261Y19111D01*
G01X25538Y19111D01*
G01X25832Y19513D01*
G01X25832Y19809D01*
G01X25767Y19873D01*
G37*

%LPD*%
G36*
G01X25538Y18480D02*
G01X25261Y18480D01*
G01X24967Y18078D01*
G01X24967Y17782D01*
G01X25032Y17718D01*
G01X25767Y17718D01*
G01X25832Y17782D01*
G01X25832Y18078D01*
G01X25538Y18480D01*
G37*
M00*
M02*
