;Layer: Drill PTH
;EasyEDA v6.3.53, 2021-02-08T15:47:13+00:00
;7da580a2e8884f3eb180e3ec4e2c64e8,b1630acdc24c452aa877618d651c332f,10
;Gerber Generator version 0.2
M48
METRIC,LZ,000.000
;Holesize 1 = 0.305 METRIC
T01C0.305
;Holesize 2 = 0.889 METRIC
T02C0.889
;Holesize 3 = 0.915 METRIC
T03C0.915
%
G05
G90
T01
X+017272Y+012192
X+023876Y+010541
X+014732Y+009398
X+016002Y+022606
X+013462Y+009398
X+017272Y+009398
X+015621Y+024130
X+018288Y+024130
X+018542Y+011176
X+023495Y+020955
X+012192Y+020955
X+010922Y+022606
X+013335Y+027178
X+019558Y+027305
X+021082Y+022606
X+024511Y+024130
X+010922Y+009398
X+021082Y+009398
T02
X+014732Y+005842
X+012192Y+005842
X+006096Y+005842
X+005080Y+026035
X+007620Y+026035
X+023495Y+005842
X+026035Y+005842
X+017780Y+005842
X+020320Y+005842
T03
X+009652Y+005842
X+010160Y+026035
M30
