G04 Layer: TopSilkLayer*
G04 EasyEDA v6.3.53, 2021-02-08T15:47:13+00:00*
G04 7da580a2e8884f3eb180e3ec4e2c64e8,b1630acdc24c452aa877618d651c332f,10*
G04 Gerber Generator version 0.2*
G04 Scale: 100 percent, Rotated: No, Reflected: No *
G04 Dimensions in millimeters *
G04 leading zeros omitted , absolute positions ,3 integer and 3 decimal *
%FSLAX33Y33*%
%MOMM*%
G90*
G71D02*

%ADD10C,0.254000*%
%ADD29C,0.203200*%
%ADD30C,0.202999*%
%ADD31C,0.150012*%
%ADD32C,0.152400*%

%LPD*%
G54D29*
G01X10922Y4572D02*
G01X8382Y4572D01*
G01X8382Y7086D01*
G01X16002Y7086D01*
G01X16002Y4572D01*
G01X10922Y4572D01*
G01X4826Y7112D02*
G01X7366Y7112D01*
G01X7366Y4572D01*
G01X4826Y4572D01*
G01X4826Y6477D01*
G54D30*
G01X4826Y7112D02*
G01X4826Y6477D01*
G54D10*
G01X14385Y28193D02*
G01X15585Y28193D01*
G01X14185Y26143D02*
G01X14185Y25143D01*
G01X15786Y26143D02*
G01X15786Y25143D01*
G01X14185Y26943D02*
G01X14185Y27942D01*
G01X15786Y26943D02*
G01X15786Y27942D01*
G01X14385Y24892D02*
G01X15585Y24892D01*
G01X14185Y25092D02*
G01X14185Y25143D01*
G01X15786Y25093D02*
G01X15786Y25143D01*
G01X14185Y27993D02*
G01X14185Y27942D01*
G01X15786Y27992D02*
G01X15786Y27942D01*
G54D29*
G01X8890Y27305D02*
G01X11430Y27305D01*
G01X11430Y24790D01*
G01X3810Y24790D01*
G01X3810Y27305D01*
G01X8890Y27305D01*
G01X27305Y7112D02*
G01X27305Y4597D01*
G01X22225Y4597D01*
G01X22225Y7112D01*
G01X27305Y7112D01*
G54D31*
G01X26891Y9916D02*
G01X26891Y8767D01*
G01X25442Y8767D01*
G01X25442Y9967D01*
G01X25432Y10586D02*
G01X25432Y11827D01*
G01X26881Y11827D01*
G01X26881Y10586D01*
G01X26891Y8767D02*
G01X26891Y8736D01*
G01X26691Y8536D01*
G01X25672Y8536D01*
G01X25642Y8567D01*
G01X25442Y8767D01*
G54D10*
G01X27181Y14977D02*
G01X27181Y16228D01*
G01X25142Y14977D02*
G01X25142Y16228D01*
G01X27181Y13978D02*
G01X27181Y12727D01*
G01X25142Y13978D02*
G01X25142Y12727D01*
G01X27181Y16228D02*
G01X25142Y16228D01*
G01X27181Y12727D02*
G01X25142Y12727D01*
G54D29*
G01X21590Y7112D02*
G01X21590Y4597D01*
G01X16510Y4597D01*
G01X16510Y7112D01*
G01X21590Y7112D01*
G54D10*
G01X7417Y21501D02*
G01X9126Y21501D01*
G01X10177Y21501D02*
G01X10396Y21501D01*
G01X11447Y21501D02*
G01X11666Y21501D01*
G01X12717Y21501D02*
G01X12936Y21501D01*
G01X13987Y21501D02*
G01X14206Y21501D01*
G01X15257Y21501D02*
G01X15476Y21501D01*
G01X16527Y21501D02*
G01X16746Y21501D01*
G01X17797Y21501D02*
G01X18016Y21501D01*
G01X19067Y21501D02*
G01X19286Y21501D01*
G01X20337Y21501D02*
G01X20556Y21501D01*
G01X21607Y21501D02*
G01X23316Y21501D01*
G01X7417Y10502D02*
G01X9126Y10502D01*
G01X10177Y10502D02*
G01X10396Y10502D01*
G01X11447Y10502D02*
G01X11666Y10502D01*
G01X12717Y10502D02*
G01X12936Y10502D01*
G01X13987Y10502D02*
G01X14206Y10502D01*
G01X15257Y10502D02*
G01X15476Y10502D01*
G01X16527Y10502D02*
G01X16746Y10502D01*
G01X17797Y10502D02*
G01X18016Y10502D01*
G01X19067Y10502D02*
G01X19286Y10502D01*
G01X20337Y10502D02*
G01X20556Y10502D01*
G01X21607Y10502D02*
G01X23316Y10502D01*
G01X23316Y10502D02*
G01X23316Y12770D01*
G01X23316Y19233D02*
G01X23316Y21501D01*
G01X7417Y10502D02*
G01X7417Y12770D01*
G01X7417Y19233D02*
G01X7417Y21501D01*
G01X22288Y24892D02*
G01X22288Y22098D01*
G01X27559Y22098D01*
G01X29083Y23622D01*
G01X29083Y24892D01*
G01X22288Y26162D02*
G01X22288Y28956D01*
G01X27559Y28956D01*
G01X29083Y27432D01*
G01X29083Y26162D01*
G01X6315Y14605D02*
G01X5115Y14605D01*
G01X6515Y16655D02*
G01X6515Y17655D01*
G01X4915Y16655D02*
G01X4915Y17655D01*
G01X6515Y15855D02*
G01X6515Y14856D01*
G01X4915Y15855D02*
G01X4915Y14856D01*
G01X6315Y17906D02*
G01X5115Y17906D01*
G01X6515Y17706D02*
G01X6515Y17655D01*
G01X4915Y17705D02*
G01X4915Y17655D01*
G01X6515Y14805D02*
G01X6515Y14856D01*
G01X4915Y14806D02*
G01X4915Y14856D01*
G01X18634Y24892D02*
G01X17434Y24892D01*
G01X18834Y26942D02*
G01X18834Y27942D01*
G01X17234Y26942D02*
G01X17234Y27942D01*
G01X18834Y26142D02*
G01X18834Y25143D01*
G01X17234Y26142D02*
G01X17234Y25143D01*
G01X18634Y28193D02*
G01X17434Y28193D01*
G01X18834Y27993D02*
G01X18834Y27942D01*
G01X17234Y27992D02*
G01X17234Y27942D01*
G01X18834Y25092D02*
G01X18834Y25143D01*
G01X17234Y25093D02*
G01X17234Y25143D01*
G01X4572Y11099D02*
G01X4978Y10515D01*
G01X4978Y10515D02*
G01X4165Y10515D01*
G01X4165Y10515D02*
G01X4572Y11099D01*
G01X5571Y12421D02*
G01X5571Y9422D01*
G01X3572Y9422D02*
G01X3572Y12421D01*
G01X5080Y11328D02*
G01X4064Y11328D01*
G01X4572Y21412D02*
G01X4165Y21996D01*
G01X4165Y21996D02*
G01X4978Y21996D01*
G01X4978Y21996D02*
G01X4572Y21412D01*
G01X3572Y20090D02*
G01X3572Y23089D01*
G01X5571Y23089D02*
G01X5571Y20090D01*
G01X4064Y21183D02*
G01X5080Y21183D01*
G01X25000Y20186D02*
G01X25800Y20186D01*
G01X24690Y19076D02*
G01X24690Y19876D01*
G01X26110Y19076D02*
G01X26110Y19876D01*
G01X24684Y18500D02*
G01X24684Y17700D01*
G01X24994Y17390D02*
G01X25794Y17390D01*
G01X26104Y18500D02*
G01X26104Y17700D01*
G54D32*
G01X11811Y4201D02*
G01X11811Y3111D01*
G01X12153Y4201D02*
G01X12153Y3111D01*
G01X12153Y4201D02*
G01X12880Y3111D01*
G01X12880Y4201D02*
G01X12880Y3111D01*
G01X5207Y4201D02*
G01X5207Y3111D01*
G01X5207Y4201D02*
G01X5882Y4201D01*
G01X5207Y3683D02*
G01X5623Y3683D01*
G01X5207Y3111D02*
G01X5882Y3111D01*
G01X6225Y4201D02*
G01X6225Y3111D01*
G01X6225Y4201D02*
G01X6951Y3111D01*
G01X6951Y4201D02*
G01X6951Y3111D01*
G01X15002Y29596D02*
G01X14951Y29700D01*
G01X14847Y29804D01*
G01X14743Y29855D01*
G01X14534Y29855D01*
G01X14430Y29804D01*
G01X14329Y29700D01*
G01X14275Y29596D01*
G01X14224Y29438D01*
G01X14224Y29179D01*
G01X14275Y29024D01*
G01X14329Y28920D01*
G01X14430Y28816D01*
G01X14534Y28765D01*
G01X14743Y28765D01*
G01X14847Y28816D01*
G01X14951Y28920D01*
G01X15002Y29024D01*
G01X15345Y29646D02*
G01X15449Y29700D01*
G01X15606Y29855D01*
G01X15606Y28765D01*
G01X4953Y28966D02*
G01X4953Y27876D01*
G01X4953Y28966D02*
G01X5369Y27876D01*
G01X5783Y28966D02*
G01X5369Y27876D01*
G01X5783Y28966D02*
G01X5783Y27876D01*
G01X6438Y28966D02*
G01X6334Y28915D01*
G01X6230Y28811D01*
G01X6179Y28707D01*
G01X6126Y28549D01*
G01X6126Y28290D01*
G01X6179Y28135D01*
G01X6230Y28031D01*
G01X6334Y27927D01*
G01X6438Y27876D01*
G01X6647Y27876D01*
G01X6751Y27927D01*
G01X6855Y28031D01*
G01X6906Y28135D01*
G01X6959Y28290D01*
G01X6959Y28549D01*
G01X6906Y28707D01*
G01X6855Y28811D01*
G01X6751Y28915D01*
G01X6647Y28966D01*
G01X6438Y28966D01*
G01X7665Y28966D02*
G01X7665Y27876D01*
G01X7302Y28966D02*
G01X8028Y28966D01*
G01X8684Y28966D02*
G01X8580Y28915D01*
G01X8475Y28811D01*
G01X8422Y28707D01*
G01X8371Y28549D01*
G01X8371Y28290D01*
G01X8422Y28135D01*
G01X8475Y28031D01*
G01X8580Y27927D01*
G01X8684Y27876D01*
G01X8890Y27876D01*
G01X8994Y27927D01*
G01X9098Y28031D01*
G01X9151Y28135D01*
G01X9202Y28290D01*
G01X9202Y28549D01*
G01X9151Y28707D01*
G01X9098Y28811D01*
G01X8994Y28915D01*
G01X8890Y28966D01*
G01X8684Y28966D01*
G01X9545Y28966D02*
G01X9545Y27876D01*
G01X9545Y28966D02*
G01X10012Y28966D01*
G01X10170Y28915D01*
G01X10220Y28862D01*
G01X10274Y28757D01*
G01X10274Y28653D01*
G01X10220Y28549D01*
G01X10170Y28498D01*
G01X10012Y28448D01*
G01X9545Y28448D01*
G01X9908Y28448D02*
G01X10274Y27876D01*
G01X22987Y4201D02*
G01X23403Y3111D01*
G01X23817Y4201D02*
G01X23403Y3111D01*
G01X24940Y3942D02*
G01X24889Y4046D01*
G01X24785Y4150D01*
G01X24681Y4201D01*
G01X24472Y4201D01*
G01X24368Y4150D01*
G01X24264Y4046D01*
G01X24213Y3942D01*
G01X24160Y3784D01*
G01X24160Y3525D01*
G01X24213Y3370D01*
G01X24264Y3266D01*
G01X24368Y3162D01*
G01X24472Y3111D01*
G01X24681Y3111D01*
G01X24785Y3162D01*
G01X24889Y3266D01*
G01X24940Y3370D01*
G01X26062Y3942D02*
G01X26009Y4046D01*
G01X25908Y4150D01*
G01X25803Y4201D01*
G01X25595Y4201D01*
G01X25491Y4150D01*
G01X25387Y4046D01*
G01X25336Y3942D01*
G01X25283Y3784D01*
G01X25283Y3525D01*
G01X25336Y3370D01*
G01X25387Y3266D01*
G01X25491Y3162D01*
G01X25595Y3111D01*
G01X25803Y3111D01*
G01X25908Y3162D01*
G01X26009Y3266D01*
G01X26062Y3370D01*
G01X26456Y3942D02*
G01X26456Y3992D01*
G01X26509Y4097D01*
G01X26560Y4150D01*
G01X26664Y4201D01*
G01X26873Y4201D01*
G01X26977Y4150D01*
G01X27028Y4097D01*
G01X27081Y3992D01*
G01X27081Y3888D01*
G01X27028Y3784D01*
G01X26924Y3629D01*
G01X26405Y3111D01*
G01X27132Y3111D01*
G01X27622Y8623D02*
G01X28712Y8623D01*
G01X28712Y8623D02*
G01X28712Y9245D01*
G01X27622Y9588D02*
G01X28712Y9588D01*
G01X27622Y9588D02*
G01X27622Y10264D01*
G01X28140Y9588D02*
G01X28140Y10005D01*
G01X28712Y9588D02*
G01X28712Y10264D01*
G01X27622Y10607D02*
G01X28712Y10607D01*
G01X27622Y10607D02*
G01X27622Y10972D01*
G01X27673Y11127D01*
G01X27777Y11231D01*
G01X27881Y11282D01*
G01X28039Y11336D01*
G01X28298Y11336D01*
G01X28453Y11282D01*
G01X28557Y11231D01*
G01X28661Y11127D01*
G01X28712Y10972D01*
G01X28712Y10607D01*
G01X27830Y11678D02*
G01X27777Y11783D01*
G01X27622Y11938D01*
G01X28712Y11938D01*
G01X27929Y13716D02*
G01X29019Y13716D01*
G01X27929Y13716D02*
G01X27929Y14183D01*
G01X27980Y14338D01*
G01X28033Y14391D01*
G01X28138Y14442D01*
G01X28242Y14442D01*
G01X28346Y14391D01*
G01X28397Y14338D01*
G01X28448Y14183D01*
G01X28448Y13716D01*
G01X28448Y14079D02*
G01X29019Y14442D01*
G01X28138Y14785D02*
G01X28084Y14889D01*
G01X27929Y15046D01*
G01X29019Y15046D01*
G01X17272Y4201D02*
G01X17688Y3111D01*
G01X18102Y4201D02*
G01X17688Y3111D01*
G01X19225Y3942D02*
G01X19174Y4046D01*
G01X19070Y4150D01*
G01X18966Y4201D01*
G01X18757Y4201D01*
G01X18653Y4150D01*
G01X18549Y4046D01*
G01X18498Y3942D01*
G01X18445Y3784D01*
G01X18445Y3525D01*
G01X18498Y3370D01*
G01X18549Y3266D01*
G01X18653Y3162D01*
G01X18757Y3111D01*
G01X18966Y3111D01*
G01X19070Y3162D01*
G01X19174Y3266D01*
G01X19225Y3370D01*
G01X20347Y3942D02*
G01X20294Y4046D01*
G01X20193Y4150D01*
G01X20088Y4201D01*
G01X19880Y4201D01*
G01X19776Y4150D01*
G01X19672Y4046D01*
G01X19621Y3942D01*
G01X19568Y3784D01*
G01X19568Y3525D01*
G01X19621Y3370D01*
G01X19672Y3266D01*
G01X19776Y3162D01*
G01X19880Y3111D01*
G01X20088Y3111D01*
G01X20193Y3162D01*
G01X20294Y3266D01*
G01X20347Y3370D01*
G01X15240Y20711D02*
G01X15240Y19931D01*
G01X15290Y19776D01*
G01X15394Y19672D01*
G01X15552Y19621D01*
G01X15656Y19621D01*
G01X15811Y19672D01*
G01X15915Y19776D01*
G01X15966Y19931D01*
G01X15966Y20711D01*
G01X16309Y20502D02*
G01X16413Y20556D01*
G01X16570Y20711D01*
G01X16570Y19621D01*
G01X25544Y27183D02*
G01X25491Y27287D01*
G01X25387Y27391D01*
G01X25285Y27442D01*
G01X25077Y27442D01*
G01X24973Y27391D01*
G01X24869Y27287D01*
G01X24815Y27183D01*
G01X24765Y27025D01*
G01X24765Y26766D01*
G01X24815Y26611D01*
G01X24869Y26507D01*
G01X24973Y26403D01*
G01X25077Y26352D01*
G01X25285Y26352D01*
G01X25387Y26403D01*
G01X25491Y26507D01*
G01X25544Y26611D01*
G01X26509Y27442D02*
G01X25991Y27442D01*
G01X25938Y26974D01*
G01X25991Y27025D01*
G01X26146Y27078D01*
G01X26301Y27078D01*
G01X26459Y27025D01*
G01X26563Y26924D01*
G01X26614Y26766D01*
G01X26614Y26662D01*
G01X26563Y26507D01*
G01X26459Y26403D01*
G01X26301Y26352D01*
G01X26146Y26352D01*
G01X25991Y26403D01*
G01X25938Y26454D01*
G01X25887Y26558D01*
G01X4069Y16619D02*
G01X4173Y16672D01*
G01X4277Y16776D01*
G01X4328Y16878D01*
G01X4328Y17086D01*
G01X4277Y17190D01*
G01X4173Y17294D01*
G01X4069Y17348D01*
G01X3911Y17399D01*
G01X3652Y17399D01*
G01X3497Y17348D01*
G01X3393Y17294D01*
G01X3289Y17190D01*
G01X3238Y17086D01*
G01X3238Y16878D01*
G01X3289Y16776D01*
G01X3393Y16672D01*
G01X3497Y16619D01*
G01X4069Y16225D02*
G01X4119Y16225D01*
G01X4224Y16172D01*
G01X4277Y16121D01*
G01X4328Y16017D01*
G01X4328Y15808D01*
G01X4277Y15704D01*
G01X4224Y15654D01*
G01X4119Y15600D01*
G01X4015Y15600D01*
G01X3911Y15654D01*
G01X3756Y15758D01*
G01X3238Y16276D01*
G01X3238Y15549D01*
G01X17797Y29596D02*
G01X17744Y29700D01*
G01X17640Y29804D01*
G01X17538Y29855D01*
G01X17330Y29855D01*
G01X17226Y29804D01*
G01X17122Y29700D01*
G01X17068Y29596D01*
G01X17018Y29438D01*
G01X17018Y29179D01*
G01X17068Y29024D01*
G01X17122Y28920D01*
G01X17226Y28816D01*
G01X17330Y28765D01*
G01X17538Y28765D01*
G01X17640Y28816D01*
G01X17744Y28920D01*
G01X17797Y29024D01*
G01X18658Y29855D02*
G01X18140Y29128D01*
G01X18920Y29128D01*
G01X18658Y29855D02*
G01X18658Y28765D01*
G01X2148Y10769D02*
G01X3238Y10769D01*
G01X2148Y10769D02*
G01X2148Y11132D01*
G01X2199Y11290D01*
G01X2303Y11391D01*
G01X2407Y11445D01*
G01X2565Y11496D01*
G01X2824Y11496D01*
G01X2979Y11445D01*
G01X3083Y11391D01*
G01X3187Y11290D01*
G01X3238Y11132D01*
G01X3238Y10769D01*
G01X2357Y11838D02*
G01X2303Y11943D01*
G01X2148Y12100D01*
G01X3238Y12100D01*
G01X6995Y21742D02*
G01X5905Y21742D01*
G01X6995Y21742D02*
G01X6995Y21379D01*
G01X6944Y21221D01*
G01X6840Y21120D01*
G01X6736Y21066D01*
G01X6578Y21015D01*
G01X6319Y21015D01*
G01X6164Y21066D01*
G01X6060Y21120D01*
G01X5956Y21221D01*
G01X5905Y21379D01*
G01X5905Y21742D01*
G01X6736Y20619D02*
G01X6786Y20619D01*
G01X6891Y20568D01*
G01X6944Y20515D01*
G01X6995Y20411D01*
G01X6995Y20205D01*
G01X6944Y20101D01*
G01X6891Y20048D01*
G01X6786Y19997D01*
G01X6682Y19997D01*
G01X6578Y20048D01*
G01X6423Y20152D01*
G01X5905Y20673D01*
G01X5905Y19944D01*
G01X27045Y18813D02*
G01X26941Y18760D01*
G01X26837Y18656D01*
G01X26786Y18554D01*
G01X26786Y18346D01*
G01X26837Y18242D01*
G01X26941Y18138D01*
G01X27045Y18084D01*
G01X27203Y18034D01*
G01X27462Y18034D01*
G01X27617Y18084D01*
G01X27721Y18138D01*
G01X27825Y18242D01*
G01X27876Y18346D01*
G01X27876Y18554D01*
G01X27825Y18656D01*
G01X27721Y18760D01*
G01X27617Y18813D01*
G01X26786Y19260D02*
G01X26786Y19832D01*
G01X27203Y19519D01*
G01X27203Y19674D01*
G01X27254Y19778D01*
G01X27305Y19832D01*
G01X27462Y19883D01*
G01X27566Y19883D01*
G01X27721Y19832D01*
G01X27825Y19728D01*
G01X27876Y19570D01*
G01X27876Y19415D01*
G01X27825Y19260D01*
G01X27774Y19207D01*
G01X27670Y19156D01*
G54D10*
G75*
G01X14386Y24893D02*
G02X14186Y25093I0J200D01*
G01*
G75*
G01X15586Y24893D02*
G03X15786Y25093I0J200D01*
G01*
G75*
G01X14386Y28193D02*
G03X14186Y27993I0J-200D01*
G01*
G75*
G01X15586Y28193D02*
G02X15786Y27993I0J-200D01*
G01*
G75*
G01X22606Y24892D02*
G03X28760Y24839I3083J646D01*
G01*
G75*
G01X28702Y26162D02*
G03X22548Y26215I-3083J-646D01*
G01*
G75*
G01X6316Y17906D02*
G02X6516Y17706I0J-200D01*
G01*
G75*
G01X5116Y17906D02*
G03X4916Y17706I0J-200D01*
G01*
G75*
G01X6316Y14606D02*
G03X6516Y14806I0J200D01*
G01*
G75*
G01X5116Y14606D02*
G02X4916Y14806I0J200D01*
G01*
G75*
G01X18635Y28193D02*
G02X18835Y27993I0J-200D01*
G01*
G75*
G01X17435Y28193D02*
G03X17235Y27993I0J-200D01*
G01*
G75*
G01X18635Y24893D02*
G03X18835Y25093I0J200D01*
G01*
G75*
G01X17435Y24893D02*
G02X17235Y25093I0J200D01*
G01*
G75*
G01X24994Y17390D02*
G02X24685Y17700I0J310D01*
G01*
G75*
G01X26104Y17700D02*
G02X25794Y17390I-310J0D01*
G01*
G75*
G01X24690Y19876D02*
G02X25000Y20186I310J0D01*
G01*
G75*
G01X25800Y20186D02*
G02X26110Y19876I0J-310D01*
G01*
G75*
G01X8891Y9296D02*
G03X8891Y9296I-407J0D01*
G01*

%LPD*%
G36*
G01X26521Y10397D02*
G01X25802Y10407D01*
G01X26162Y10147D01*
G01X26521Y10397D01*
G37*

%LPD*%
G36*
G01X23814Y24892D02*
G01X22667Y24892D01*
G01X22613Y24837D01*
G01X22613Y24441D01*
G01X23114Y23749D01*
G01X23179Y23622D01*
G01X23814Y23114D01*
G01X23814Y24892D01*
G37*

%LPD*%
G36*
G01X23799Y26162D02*
G01X23799Y27940D01*
G01X23114Y27432D01*
G01X23063Y27203D01*
G01X22548Y26612D01*
G01X22548Y26216D01*
G01X22602Y26162D01*
G01X23799Y26162D01*
G37*
M00*
M02*
