G04 Layer: TopLayer*
G04 EasyEDA v6.3.53, 2021-02-08T15:47:13+00:00*
G04 7da580a2e8884f3eb180e3ec4e2c64e8,b1630acdc24c452aa877618d651c332f,10*
G04 Gerber Generator version 0.2*
G04 Scale: 100 percent, Rotated: No, Reflected: No *
G04 Dimensions in millimeters *
G04 leading zeros omitted , absolute positions ,3 integer and 3 decimal *
%FSLAX33Y33*%
%MOMM*%
G90*
G71D02*

%ADD11C,0.499999*%
%ADD12C,0.299999*%
%ADD13C,0.999998*%
%ADD14C,0.599999*%
%ADD15C,0.699999*%
%ADD16C,0.799998*%
%ADD17C,0.609600*%
%ADD18R,1.099998X0.999998*%
%ADD19R,0.999998X0.899922*%
%ADD20R,1.550010X0.999998*%
%ADD21R,0.635000X1.999996*%
%ADD22R,15.899994X5.999988*%
%ADD23R,2.799994X0.799998*%
%ADD24R,1.299997X1.299997*%
%ADD25R,0.899998X0.799998*%
%ADD26R,1.574800X1.574800*%
%ADD27C,1.574800*%
%ADD28C,1.524000*%

%LPD*%
G54D11*
G01X26924Y19578D02*
G01X27051Y19451D01*
G01X27051Y18161D01*
G01X26797Y17907D01*
G01X26924Y19578D02*
G01X26924Y21971D01*
G01X28194Y23241D01*
G01X28194Y25527D01*
G01X21082Y22606D02*
G01X21336Y22860D01*
G01X23241Y22860D01*
G01X25400Y17896D02*
G01X26797Y17907D01*
G54D12*
G01X12446Y7874D02*
G01X12192Y7620D01*
G01X6731Y7620D01*
G01X6096Y6985D01*
G01X6096Y5842D01*
G54D13*
G01X23495Y5842D02*
G01X22479Y7493D01*
G01X20955Y7493D01*
G01X19812Y8128D01*
G01X17780Y5842D02*
G01X19812Y3810D01*
G01X21463Y3810D01*
G01X23495Y5842D01*
G54D14*
G01X23749Y3556D02*
G01X24765Y3556D01*
G01X24765Y10541D01*
G01X23876Y10541D01*
G54D12*
G01X12192Y8379D02*
G01X11432Y7620D01*
G54D11*
G01X26035Y5842D02*
G01X26162Y5969D01*
G01X26162Y9437D01*
G54D12*
G01X12192Y9402D02*
G01X12192Y8379D01*
G01X18542Y9402D02*
G01X18542Y8128D01*
G01X18288Y7874D01*
G01X12446Y7874D01*
G54D13*
G01X19812Y8128D02*
G01X19812Y9402D01*
G54D14*
G01X17272Y12192D02*
G01X16002Y10922D01*
G01X16002Y9402D01*
G54D12*
G01X18542Y9271D02*
G01X18542Y11176D01*
G54D11*
G01X10922Y9402D02*
G01X10922Y11557D01*
G01X15367Y16002D01*
G54D15*
G01X14732Y9398D02*
G01X14732Y9402D01*
G54D12*
G01X15621Y24130D02*
G01X16256Y24130D01*
G01X17272Y23114D01*
G01X17272Y22600D01*
G54D11*
G01X14986Y27443D02*
G01X14720Y27178D01*
G01X13335Y27178D01*
G54D12*
G01X17272Y9398D02*
G01X17272Y9402D01*
G54D16*
G01X25400Y17896D02*
G01X25283Y17896D01*
G01X23241Y19939D01*
G01X20320Y19939D01*
G01X19812Y20447D01*
G01X19812Y22601D01*
G54D13*
G01X19812Y22601D02*
G01X19812Y24511D01*
G01X18680Y25642D01*
G01X18034Y25642D01*
G54D12*
G01X18288Y24130D02*
G01X18542Y23876D01*
G01X18542Y22601D01*
G54D11*
G01X12192Y22601D02*
G01X12192Y20955D01*
G01X14986Y25643D02*
G01X14732Y25389D01*
G01X14732Y22601D01*
G01X18034Y27442D02*
G01X14986Y27443D01*
G01X19558Y27305D02*
G01X19420Y27442D01*
G01X18034Y27442D01*
G01X24511Y24130D02*
G01X23114Y25527D01*
G01X21082Y9398D02*
G01X21082Y9402D01*
G01X9652Y9402D02*
G01X10922Y9402D01*
G01X26162Y15477D02*
G01X25400Y16239D01*
G01X25400Y17896D01*
G01X26162Y11137D02*
G01X26162Y13478D01*
G01X5715Y17155D02*
G01X6477Y17917D01*
G01X6477Y19177D01*
G01X7112Y19812D01*
G01X12192Y19812D01*
G01X13462Y21082D01*
G01X13462Y22601D01*
G01X9652Y22601D02*
G01X10922Y22601D01*
G01X12192Y20955D02*
G01X7239Y20955D01*
G01X6173Y19889D01*
G01X4572Y19889D01*
G01X4572Y23290D02*
G01X4113Y23290D01*
G01X2921Y22098D01*
G01X2921Y16002D01*
G01X3567Y15355D01*
G01X5716Y15355D01*
G01X5716Y15355D02*
G01X4572Y14211D01*
G01X4572Y12622D01*
G54D13*
G01X4572Y9222D02*
G01X4572Y8763D01*
G01X3683Y7874D01*
G01X3683Y4953D01*
G01X4699Y3937D01*
G01X7929Y3937D01*
G01X16764Y3937D01*
G01X17780Y4953D01*
G01X17780Y5842D01*
G54D14*
G01X10160Y26035D02*
G01X10160Y27305D01*
G01X9652Y27813D01*
G01X4191Y27813D01*
G01X1905Y25527D01*
G01X1778Y10541D01*
G01X1778Y10541D02*
G01X1778Y10541D01*
G01X1778Y5334D01*
G01X4318Y2794D01*
G01X22987Y2794D01*
G01X23749Y3556D01*
G54D11*
G01X23495Y20955D02*
G01X24953Y19496D01*
G01X25400Y19496D01*
G54D13*
G01X19812Y9403D02*
G01X19812Y10795D01*
G01X20828Y11811D01*
G01X24257Y11811D01*
G01X24257Y14986D01*
G01X24749Y15478D01*
G01X26162Y15478D01*
G54D18*
G01X14986Y25643D03*
G01X14986Y27443D03*
G54D19*
G01X26162Y9437D03*
G01X26162Y11137D03*
G54D20*
G01X26162Y13478D03*
G01X26162Y15477D03*
G54D21*
G01X9652Y9402D03*
G01X10922Y9402D03*
G01X12192Y9402D03*
G01X13462Y9402D03*
G01X14732Y9402D03*
G01X16002Y9402D03*
G01X17272Y9402D03*
G01X18542Y9402D03*
G01X19812Y9402D03*
G01X21082Y9402D03*
G01X21082Y22601D03*
G01X19812Y22601D03*
G01X18542Y22601D03*
G01X17272Y22601D03*
G01X16002Y22601D03*
G01X14732Y22601D03*
G01X13462Y22601D03*
G01X12192Y22601D03*
G01X10922Y22601D03*
G01X9652Y22601D03*
G54D22*
G01X15367Y16002D03*
G54D23*
G01X23114Y25527D03*
G01X28194Y25527D03*
G54D18*
G01X5716Y17155D03*
G01X5716Y15355D03*
G01X18035Y27442D03*
G01X18035Y25642D03*
G54D24*
G01X4572Y9221D03*
G01X4572Y12622D03*
G01X4572Y23290D03*
G01X4572Y19889D03*
G54D25*
G01X25400Y19496D03*
G01X25400Y18095D03*
G54D26*
G01X14732Y5842D03*
G54D27*
G01X12192Y5842D03*
G54D28*
G01X9652Y5842D03*
G54D26*
G01X6096Y5842D03*
G01X5080Y26035D03*
G54D27*
G01X7620Y26035D03*
G54D28*
G01X10160Y26035D03*
G54D26*
G01X23495Y5842D03*
G54D27*
G01X26035Y5842D03*
G54D26*
G01X17780Y5842D03*
G54D27*
G01X20320Y5842D03*
G54D17*
G01X17272Y12192D03*
G01X23876Y10541D03*
G01X14732Y9398D03*
G01X16002Y22606D03*
G01X13462Y9398D03*
G01X17272Y9398D03*
G01X15621Y24130D03*
G01X18288Y24130D03*
G01X18542Y11176D03*
G01X23495Y20955D03*
G01X12192Y20955D03*
G01X10922Y22606D03*
G01X13335Y27178D03*
G01X19558Y27305D03*
G01X21082Y22606D03*
G01X24511Y24130D03*
G01X10922Y9398D03*
G01X21082Y9398D03*
M00*
M02*
