G04 Layer: TopSolderMaskLayer*
G04 EasyEDA v6.3.53, 2021-02-08T15:47:13+00:00*
G04 7da580a2e8884f3eb180e3ec4e2c64e8,b1630acdc24c452aa877618d651c332f,10*
G04 Gerber Generator version 0.2*
G04 Scale: 100 percent, Rotated: No, Reflected: No *
G04 Dimensions in millimeters *
G04 leading zeros omitted , absolute positions ,3 integer and 3 decimal *
%FSLAX33Y33*%
%MOMM*%
G90*
G71D02*

%ADD33R,1.778000X1.778000*%
%ADD34C,1.778000*%
%ADD35C,1.727200*%
%ADD39R,0.838200X2.203196*%

%LPD*%
G54D33*
G01X14732Y5842D03*
G54D34*
G01X12192Y5842D03*
G54D35*
G01X9652Y5842D03*
G54D33*
G01X6096Y5842D03*
G36*
G01X14333Y25041D02*
G01X14333Y26245D01*
G01X15638Y26245D01*
G01X15638Y25041D01*
G01X14333Y25041D01*
G37*
G36*
G01X14333Y26842D02*
G01X14333Y28044D01*
G01X15638Y28044D01*
G01X15638Y26842D01*
G01X14333Y26842D01*
G37*
G36*
G01X4191Y25146D02*
G01X4191Y26924D01*
G01X5969Y26924D01*
G01X5969Y25146D01*
G01X4191Y25146D01*
G37*
G54D34*
G01X7620Y26035D03*
G54D35*
G01X10160Y26035D03*
G36*
G01X22606Y4953D02*
G01X22606Y6731D01*
G01X24384Y6731D01*
G01X24384Y4953D01*
G01X22606Y4953D01*
G37*
G54D34*
G01X26035Y5842D03*
G36*
G01X25560Y8884D02*
G01X25560Y9989D01*
G01X26763Y9989D01*
G01X26763Y8884D01*
G01X25560Y8884D01*
G37*
G36*
G01X25560Y10586D02*
G01X25560Y11689D01*
G01X26763Y11689D01*
G01X26763Y10586D01*
G01X25560Y10586D01*
G37*
G36*
G01X25285Y12875D02*
G01X25285Y14079D01*
G01X27038Y14079D01*
G01X27038Y12875D01*
G01X25285Y12875D01*
G37*
G36*
G01X25285Y14876D02*
G01X25285Y16080D01*
G01X27038Y16080D01*
G01X27038Y14876D01*
G01X25285Y14876D01*
G37*
G36*
G01X16891Y4953D02*
G01X16891Y6731D01*
G01X18669Y6731D01*
G01X18669Y4953D01*
G01X16891Y4953D01*
G37*
G01X20320Y5842D03*
G36*
G01X9232Y8300D02*
G01X9232Y10502D01*
G01X10071Y10502D01*
G01X10071Y8300D01*
G01X9232Y8300D01*
G37*
G36*
G01X10502Y8300D02*
G01X10502Y10502D01*
G01X11341Y10502D01*
G01X11341Y8300D01*
G01X10502Y8300D01*
G37*
G36*
G01X11772Y8300D02*
G01X11772Y10502D01*
G01X12611Y10502D01*
G01X12611Y8300D01*
G01X11772Y8300D01*
G37*
G36*
G01X13042Y8300D02*
G01X13042Y10502D01*
G01X13881Y10502D01*
G01X13881Y8300D01*
G01X13042Y8300D01*
G37*
G36*
G01X14312Y8300D02*
G01X14312Y10502D01*
G01X15151Y10502D01*
G01X15151Y8300D01*
G01X14312Y8300D01*
G37*
G36*
G01X15582Y8300D02*
G01X15582Y10502D01*
G01X16421Y10502D01*
G01X16421Y8300D01*
G01X15582Y8300D01*
G37*
G36*
G01X16852Y8300D02*
G01X16852Y10502D01*
G01X17691Y10502D01*
G01X17691Y8300D01*
G01X16852Y8300D01*
G37*
G36*
G01X18122Y8300D02*
G01X18122Y10502D01*
G01X18961Y10502D01*
G01X18961Y8300D01*
G01X18122Y8300D01*
G37*
G36*
G01X19392Y8300D02*
G01X19392Y10502D01*
G01X20231Y10502D01*
G01X20231Y8300D01*
G01X19392Y8300D01*
G37*
G36*
G01X20662Y8300D02*
G01X20662Y10502D01*
G01X21501Y10502D01*
G01X21501Y8300D01*
G01X20662Y8300D01*
G37*
G54D39*
G01X21082Y22601D03*
G01X19812Y22601D03*
G01X18542Y22601D03*
G01X17272Y22601D03*
G01X16002Y22601D03*
G01X14732Y22601D03*
G01X13462Y22601D03*
G01X12192Y22601D03*
G01X10922Y22601D03*
G01X9652Y22601D03*
G36*
G01X7315Y12900D02*
G01X7315Y19103D01*
G01X23418Y19103D01*
G01X23418Y12900D01*
G01X7315Y12900D01*
G37*
G36*
G01X21612Y25026D02*
G01X21612Y26027D01*
G01X24615Y26027D01*
G01X24615Y25026D01*
G01X21612Y25026D01*
G37*
G36*
G01X26692Y25026D02*
G01X26692Y26027D01*
G01X29695Y26027D01*
G01X29695Y25026D01*
G01X26692Y25026D01*
G37*
G36*
G01X5064Y16553D02*
G01X5064Y17757D01*
G01X6367Y17757D01*
G01X6367Y16553D01*
G01X5064Y16553D01*
G37*
G36*
G01X5064Y14754D02*
G01X5064Y15956D01*
G01X6367Y15956D01*
G01X6367Y14754D01*
G01X5064Y14754D01*
G37*
G36*
G01X17383Y26840D02*
G01X17383Y28044D01*
G01X18686Y28044D01*
G01X18686Y26840D01*
G01X17383Y26840D01*
G37*
G36*
G01X17383Y25041D02*
G01X17383Y26243D01*
G01X18686Y26243D01*
G01X18686Y25041D01*
G01X17383Y25041D01*
G37*
G36*
G01X3820Y8470D02*
G01X3820Y9974D01*
G01X5323Y9974D01*
G01X5323Y8470D01*
G01X3820Y8470D01*
G37*
G36*
G01X3820Y11869D02*
G01X3820Y13373D01*
G01X5323Y13373D01*
G01X5323Y11869D01*
G01X3820Y11869D01*
G37*
G36*
G01X3820Y22537D02*
G01X3820Y24041D01*
G01X5323Y24041D01*
G01X5323Y22537D01*
G01X3820Y22537D01*
G37*
G36*
G01X3820Y19138D02*
G01X3820Y20642D01*
G01X5323Y20642D01*
G01X5323Y19138D01*
G01X3820Y19138D01*
G37*
G36*
G01X24899Y19044D02*
G01X24899Y19946D01*
G01X25900Y19946D01*
G01X25900Y19044D01*
G01X24899Y19044D01*
G37*
G36*
G01X24899Y17645D02*
G01X24899Y18547D01*
G01X25900Y18547D01*
G01X25900Y17645D01*
G01X24899Y17645D01*
G37*
M00*
M02*
